<mxfile host="Electron" agent="Mozilla/5.0 (Macintosh; Intel Mac OS X 10_15_7) AppleWebKit/537.36 (KHTML, like Gecko) draw.io/26.0.4 Chrome/128.0.6613.186 Electron/32.2.5 Safari/537.36" version="26.0.4">
  <diagram name="Page-1" id="VNXcfkbYEXvpR4YsD0s-">
    <mxGraphModel dx="892" dy="606" grid="1" gridSize="10" guides="1" tooltips="1" connect="1" arrows="1" fold="1" page="1" pageScale="1" pageWidth="827" pageHeight="1169" math="0" shadow="0">
      <root>
        <mxCell id="0" />
        <mxCell id="1" parent="0" />
        <mxCell id="Vn9umDjE4MvJT5pGu6KD-4" value="Visiteur" style="shape=umlLifeline;perimeter=lifelinePerimeter;whiteSpace=wrap;html=1;container=1;dropTarget=0;collapsible=0;recursiveResize=0;outlineConnect=0;portConstraint=eastwest;newEdgeStyle={&quot;curved&quot;:0,&quot;rounded&quot;:0};participant=umlActor;size=50;align=center;fontSize=14;" parent="1" vertex="1">
          <mxGeometry x="90" y="40" width="20" height="470" as="geometry" />
        </mxCell>
        <mxCell id="Vn9umDjE4MvJT5pGu6KD-47" value="" style="html=1;points=[[0,0,0,0,5],[0,1,0,0,-5],[1,0,0,0,5],[1,1,0,0,-5]];perimeter=orthogonalPerimeter;outlineConnect=0;targetShapes=umlLifeline;portConstraint=eastwest;newEdgeStyle={&quot;curved&quot;:0,&quot;rounded&quot;:0};labelBackgroundColor=none;fillColor=#ffe6cc;strokeColor=#d79b00;" parent="Vn9umDjE4MvJT5pGu6KD-4" vertex="1">
          <mxGeometry x="5" y="90" width="10" height="170" as="geometry" />
        </mxCell>
        <mxCell id="eg1m_n-5e4tIelkp_Vyl-4" value="" style="html=1;points=[[0,0,0,0,5],[0,1,0,0,-5],[1,0,0,0,5],[1,1,0,0,-5]];perimeter=orthogonalPerimeter;outlineConnect=0;targetShapes=umlLifeline;portConstraint=eastwest;newEdgeStyle={&quot;curved&quot;:0,&quot;rounded&quot;:0};labelBackgroundColor=none;fillColor=#ffe6cc;strokeColor=#d79b00;" vertex="1" parent="Vn9umDjE4MvJT5pGu6KD-4">
          <mxGeometry x="5" y="290" width="10" height="160" as="geometry" />
        </mxCell>
        <mxCell id="Vn9umDjE4MvJT5pGu6KD-5" value="Application" style="shape=umlLifeline;perimeter=lifelinePerimeter;whiteSpace=wrap;html=1;container=1;dropTarget=0;collapsible=0;recursiveResize=0;outlineConnect=0;portConstraint=eastwest;newEdgeStyle={&quot;curved&quot;:0,&quot;rounded&quot;:0};" parent="1" vertex="1">
          <mxGeometry x="348" y="40" width="100" height="470" as="geometry" />
        </mxCell>
        <mxCell id="Vn9umDjE4MvJT5pGu6KD-13" value="" style="html=1;points=[[0,0,0,0,5],[0,1,0,0,-5],[1,0,0,0,5],[1,1,0,0,-5]];perimeter=orthogonalPerimeter;outlineConnect=0;targetShapes=umlLifeline;portConstraint=eastwest;newEdgeStyle={&quot;curved&quot;:0,&quot;rounded&quot;:0};fillColor=#dae8fc;strokeColor=#6c8ebf;" parent="Vn9umDjE4MvJT5pGu6KD-5" vertex="1">
          <mxGeometry x="45" y="100" width="10" height="150" as="geometry" />
        </mxCell>
        <mxCell id="Vn9umDjE4MvJT5pGu6KD-24" value="1.2 : requête fetch : liste des véhicules" style="html=1;align=left;spacingLeft=2;endArrow=block;rounded=0;edgeStyle=orthogonalEdgeStyle;curved=0;rounded=0;" parent="Vn9umDjE4MvJT5pGu6KD-5" edge="1">
          <mxGeometry x="-0.1905" y="9" relative="1" as="geometry">
            <mxPoint x="55" y="119" as="sourcePoint" />
            <Array as="points">
              <mxPoint x="79" y="119" />
              <mxPoint x="79" y="159" />
            </Array>
            <mxPoint x="55" y="159" as="targetPoint" />
            <mxPoint as="offset" />
          </mxGeometry>
        </mxCell>
        <mxCell id="Vn9umDjE4MvJT5pGu6KD-25" value="" style="html=1;points=[[0,0,0,0,5],[0,1,0,0,-5],[1,0,0,0,5],[1,1,0,0,-5]];perimeter=orthogonalPerimeter;outlineConnect=0;targetShapes=umlLifeline;portConstraint=eastwest;newEdgeStyle={&quot;curved&quot;:0,&quot;rounded&quot;:0};fillColor=#dae8fc;strokeColor=#6c8ebf;" parent="Vn9umDjE4MvJT5pGu6KD-5" vertex="1">
          <mxGeometry x="45" y="300" width="10" height="140" as="geometry" />
        </mxCell>
        <mxCell id="Vn9umDjE4MvJT5pGu6KD-27" value="2.2 : requete fetch : filtrage des véhicules" style="html=1;align=left;spacingLeft=2;endArrow=block;rounded=0;edgeStyle=orthogonalEdgeStyle;curved=0;rounded=0;" parent="Vn9umDjE4MvJT5pGu6KD-5" edge="1">
          <mxGeometry x="-0.1905" y="9" relative="1" as="geometry">
            <mxPoint x="55" y="320" as="sourcePoint" />
            <Array as="points">
              <mxPoint x="77" y="320" />
              <mxPoint x="77" y="360" />
            </Array>
            <mxPoint x="55" y="360" as="targetPoint" />
            <mxPoint as="offset" />
          </mxGeometry>
        </mxCell>
        <mxCell id="Vn9umDjE4MvJT5pGu6KD-7" value="Database" style="shape=umlLifeline;perimeter=lifelinePerimeter;whiteSpace=wrap;html=1;container=1;dropTarget=0;collapsible=0;recursiveResize=0;outlineConnect=0;portConstraint=eastwest;newEdgeStyle={&quot;curved&quot;:0,&quot;rounded&quot;:0};" parent="1" vertex="1">
          <mxGeometry x="641" y="40" width="100" height="470" as="geometry" />
        </mxCell>
        <mxCell id="Vn9umDjE4MvJT5pGu6KD-17" value="" style="html=1;points=[[0,0,0,0,5],[0,1,0,0,-5],[1,0,0,0,5],[1,1,0,0,-5]];perimeter=orthogonalPerimeter;outlineConnect=0;targetShapes=umlLifeline;portConstraint=eastwest;newEdgeStyle={&quot;curved&quot;:0,&quot;rounded&quot;:0};fillColor=#e1d5e7;strokeColor=#9673a6;" parent="Vn9umDjE4MvJT5pGu6KD-7" vertex="1">
          <mxGeometry x="45" y="180" width="10" height="50" as="geometry" />
        </mxCell>
        <mxCell id="WyXcLjYPZOlFibcYT7f2-1" value="" style="html=1;points=[[0,0,0,0,5],[0,1,0,0,-5],[1,0,0,0,5],[1,1,0,0,-5]];perimeter=orthogonalPerimeter;outlineConnect=0;targetShapes=umlLifeline;portConstraint=eastwest;newEdgeStyle={&quot;curved&quot;:0,&quot;rounded&quot;:0};fillColor=#e1d5e7;strokeColor=#9673a6;" parent="Vn9umDjE4MvJT5pGu6KD-7" vertex="1">
          <mxGeometry x="45" y="370" width="10" height="50" as="geometry" />
        </mxCell>
        <mxCell id="Vn9umDjE4MvJT5pGu6KD-8" value="1.1 : Demande de la page des véhicules d&#39;occasion" style="html=1;verticalAlign=bottom;endArrow=block;curved=0;rounded=0;spacingLeft=0;horizontal=1;" parent="1" edge="1">
          <mxGeometry width="80" relative="1" as="geometry">
            <mxPoint x="105" y="149" as="sourcePoint" />
            <mxPoint x="393" y="149" as="targetPoint" />
          </mxGeometry>
        </mxCell>
        <mxCell id="Vn9umDjE4MvJT5pGu6KD-16" value="1.3 : demande de la liste des vehicules&amp;nbsp;" style="html=1;verticalAlign=bottom;endArrow=block;curved=0;rounded=0;" parent="1" edge="1">
          <mxGeometry width="80" relative="1" as="geometry">
            <mxPoint x="403" y="230" as="sourcePoint" />
            <mxPoint x="686" y="230" as="targetPoint" />
            <Array as="points">
              <mxPoint x="540" y="230" />
            </Array>
          </mxGeometry>
        </mxCell>
        <mxCell id="Vn9umDjE4MvJT5pGu6KD-18" value="1.4 : retour de la liste des véhicules" style="html=1;verticalAlign=bottom;endArrow=open;dashed=1;endSize=8;curved=0;rounded=0;" parent="1" edge="1">
          <mxGeometry relative="1" as="geometry">
            <mxPoint x="686" y="260" as="sourcePoint" />
            <mxPoint x="403" y="260" as="targetPoint" />
          </mxGeometry>
        </mxCell>
        <mxCell id="Vn9umDjE4MvJT5pGu6KD-19" value="1.5 : Affichage de la page des véhicules d&#39;occasion" style="html=1;verticalAlign=bottom;endArrow=open;dashed=1;endSize=8;curved=0;rounded=0;" parent="1" edge="1">
          <mxGeometry relative="1" as="geometry">
            <mxPoint x="393" y="285" as="sourcePoint" />
            <mxPoint x="105" y="285" as="targetPoint" />
            <mxPoint as="offset" />
          </mxGeometry>
        </mxCell>
        <mxCell id="Vn9umDjE4MvJT5pGu6KD-26" value="2.1 : L&#39;utilisateur filtre la liste des véhicules" style="html=1;verticalAlign=bottom;endArrow=block;curved=0;rounded=0;" parent="1" edge="1">
          <mxGeometry width="80" relative="1" as="geometry">
            <mxPoint x="105" y="345" as="sourcePoint" />
            <mxPoint x="393" y="345" as="targetPoint" />
            <mxPoint as="offset" />
          </mxGeometry>
        </mxCell>
        <mxCell id="Vn9umDjE4MvJT5pGu6KD-28" value="2.5 : Affichage de la liste des véhicules filtrés" style="html=1;verticalAlign=bottom;endArrow=open;dashed=1;endSize=8;curved=0;rounded=0;" parent="1" edge="1">
          <mxGeometry relative="1" as="geometry">
            <mxPoint x="393.5" y="474" as="sourcePoint" />
            <mxPoint x="105" y="474" as="targetPoint" />
          </mxGeometry>
        </mxCell>
        <mxCell id="Vn9umDjE4MvJT5pGu6KD-29" value="Visiteur" style="shape=umlLifeline;perimeter=lifelinePerimeter;whiteSpace=wrap;html=1;container=1;dropTarget=0;collapsible=0;recursiveResize=0;outlineConnect=0;portConstraint=eastwest;newEdgeStyle={&quot;curved&quot;:0,&quot;rounded&quot;:0};participant=umlActor;size=50;align=center;fontSize=14;" parent="1" vertex="1">
          <mxGeometry x="90" y="570" width="20" height="470" as="geometry" />
        </mxCell>
        <mxCell id="Vn9umDjE4MvJT5pGu6KD-48" value="" style="html=1;points=[[0,0,0,0,5],[0,1,0,0,-5],[1,0,0,0,5],[1,1,0,0,-5]];perimeter=orthogonalPerimeter;outlineConnect=0;targetShapes=umlLifeline;portConstraint=eastwest;newEdgeStyle={&quot;curved&quot;:0,&quot;rounded&quot;:0};fillColor=#ffe6cc;strokeColor=#d79b00;" parent="Vn9umDjE4MvJT5pGu6KD-29" vertex="1">
          <mxGeometry x="5" y="90" width="10" height="320" as="geometry" />
        </mxCell>
        <mxCell id="Vn9umDjE4MvJT5pGu6KD-30" value="Application" style="shape=umlLifeline;perimeter=lifelinePerimeter;whiteSpace=wrap;html=1;container=1;dropTarget=0;collapsible=0;recursiveResize=0;outlineConnect=0;portConstraint=eastwest;newEdgeStyle={&quot;curved&quot;:0,&quot;rounded&quot;:0};" parent="1" vertex="1">
          <mxGeometry x="348" y="570" width="100" height="470" as="geometry" />
        </mxCell>
        <mxCell id="Vn9umDjE4MvJT5pGu6KD-31" value="" style="html=1;points=[[0,0,0,0,5],[0,1,0,0,-5],[1,0,0,0,5],[1,1,0,0,-5]];perimeter=orthogonalPerimeter;outlineConnect=0;targetShapes=umlLifeline;portConstraint=eastwest;newEdgeStyle={&quot;curved&quot;:0,&quot;rounded&quot;:0};fillColor=#dae8fc;strokeColor=#6c8ebf;" parent="Vn9umDjE4MvJT5pGu6KD-30" vertex="1">
          <mxGeometry x="45" y="100" width="10" height="300" as="geometry" />
        </mxCell>
        <mxCell id="Vn9umDjE4MvJT5pGu6KD-36" value="Database" style="shape=umlLifeline;perimeter=lifelinePerimeter;whiteSpace=wrap;html=1;container=1;dropTarget=0;collapsible=0;recursiveResize=0;outlineConnect=0;portConstraint=eastwest;newEdgeStyle={&quot;curved&quot;:0,&quot;rounded&quot;:0};" parent="1" vertex="1">
          <mxGeometry x="641" y="570" width="100" height="470" as="geometry" />
        </mxCell>
        <mxCell id="Vn9umDjE4MvJT5pGu6KD-37" value="" style="html=1;points=[[0,0,0,0,5],[0,1,0,0,-5],[1,0,0,0,5],[1,1,0,0,-5]];perimeter=orthogonalPerimeter;outlineConnect=0;targetShapes=umlLifeline;portConstraint=eastwest;newEdgeStyle={&quot;curved&quot;:0,&quot;rounded&quot;:0};fillColor=#e1d5e7;strokeColor=#9673a6;" parent="Vn9umDjE4MvJT5pGu6KD-36" vertex="1">
          <mxGeometry x="45" y="200" width="10" height="60" as="geometry" />
        </mxCell>
        <mxCell id="Vn9umDjE4MvJT5pGu6KD-38" value="1 : Soumission du formulaire de contact" style="html=1;verticalAlign=bottom;endArrow=block;curved=0;rounded=0;" parent="1" edge="1">
          <mxGeometry width="80" relative="1" as="geometry">
            <mxPoint x="105" y="676" as="sourcePoint" />
            <mxPoint x="393" y="676" as="targetPoint" />
          </mxGeometry>
        </mxCell>
        <mxCell id="Vn9umDjE4MvJT5pGu6KD-40" value="2 : vérification des données" style="html=1;align=left;spacingLeft=2;endArrow=block;rounded=0;edgeStyle=orthogonalEdgeStyle;curved=0;rounded=0;" parent="1" edge="1">
          <mxGeometry x="-0.1842" y="9" relative="1" as="geometry">
            <mxPoint x="403" y="690" as="sourcePoint" />
            <Array as="points">
              <mxPoint x="425" y="690" />
              <mxPoint x="425" y="730" />
            </Array>
            <mxPoint x="403" y="730" as="targetPoint" />
            <mxPoint as="offset" />
          </mxGeometry>
        </mxCell>
        <mxCell id="Vn9umDjE4MvJT5pGu6KD-41" value="3a : envoi des données pour sauvegarde" style="html=1;verticalAlign=bottom;endArrow=block;curved=0;rounded=0;" parent="1" edge="1">
          <mxGeometry x="-0.1028" width="80" relative="1" as="geometry">
            <mxPoint x="403" y="776.55" as="sourcePoint" />
            <mxPoint x="686" y="776.55" as="targetPoint" />
            <mxPoint as="offset" />
          </mxGeometry>
        </mxCell>
        <mxCell id="Vn9umDjE4MvJT5pGu6KD-42" value="alt" style="shape=umlFrame;whiteSpace=wrap;html=1;pointerEvents=0;" parent="1" vertex="1">
          <mxGeometry x="20" y="750" width="700" height="250" as="geometry" />
        </mxCell>
        <mxCell id="Vn9umDjE4MvJT5pGu6KD-43" value="4 : données sauvegardées" style="html=1;verticalAlign=bottom;endArrow=open;dashed=1;endSize=8;curved=0;rounded=0;" parent="1" edge="1">
          <mxGeometry relative="1" as="geometry">
            <mxPoint x="686" y="825" as="sourcePoint" />
            <mxPoint x="403" y="825" as="targetPoint" />
          </mxGeometry>
        </mxCell>
        <mxCell id="Vn9umDjE4MvJT5pGu6KD-44" value="5 : Actualisation de la page et&lt;div&gt;&amp;nbsp;affichage d&#39;un message de confirmation&lt;/div&gt;" style="html=1;verticalAlign=bottom;endArrow=open;dashed=1;endSize=8;curved=0;rounded=0;" parent="1" edge="1">
          <mxGeometry x="-0.0934" relative="1" as="geometry">
            <mxPoint x="393" y="845" as="sourcePoint" />
            <mxPoint x="105" y="845" as="targetPoint" />
            <mxPoint as="offset" />
          </mxGeometry>
        </mxCell>
        <mxCell id="Vn9umDjE4MvJT5pGu6KD-46" value="3b :Actualisation de la page et&lt;div&gt;&amp;nbsp;affichage d&#39;un message d&#39;erreur&lt;/div&gt;" style="html=1;verticalAlign=bottom;endArrow=open;dashed=1;endSize=8;curved=0;rounded=0;" parent="1" edge="1">
          <mxGeometry x="-0.1047" y="-3" relative="1" as="geometry">
            <mxPoint x="390" y="964" as="sourcePoint" />
            <mxPoint x="105" y="964" as="targetPoint" />
            <mxPoint as="offset" />
          </mxGeometry>
        </mxCell>
        <mxCell id="WyXcLjYPZOlFibcYT7f2-2" value="2.3 : demande de la liste des vehicules&amp;nbsp;" style="html=1;verticalAlign=bottom;endArrow=block;curved=0;rounded=0;" parent="1" source="Vn9umDjE4MvJT5pGu6KD-25" target="WyXcLjYPZOlFibcYT7f2-1" edge="1">
          <mxGeometry width="80" relative="1" as="geometry">
            <mxPoint x="400" y="420" as="sourcePoint" />
            <mxPoint x="683" y="420" as="targetPoint" />
            <Array as="points">
              <mxPoint x="537" y="420" />
            </Array>
          </mxGeometry>
        </mxCell>
        <mxCell id="WyXcLjYPZOlFibcYT7f2-3" value="2.4 : retour de la liste des véhicules" style="html=1;verticalAlign=bottom;endArrow=open;dashed=1;endSize=8;curved=0;rounded=0;" parent="1" edge="1">
          <mxGeometry x="0.0035" relative="1" as="geometry">
            <mxPoint x="686" y="450" as="sourcePoint" />
            <mxPoint x="403" y="450" as="targetPoint" />
            <mxPoint as="offset" />
          </mxGeometry>
        </mxCell>
        <mxCell id="eg1m_n-5e4tIelkp_Vyl-5" value="Affichage et filtrage de la liste des véhicules" style="shape=umlFrame;whiteSpace=wrap;html=1;pointerEvents=0;width=270;height=20;" vertex="1" parent="1">
          <mxGeometry x="10" y="10" width="800" height="520" as="geometry" />
        </mxCell>
        <mxCell id="eg1m_n-5e4tIelkp_Vyl-7" value="Soumission du formulaire de contact pour un véhicule&amp;nbsp;" style="shape=umlFrame;whiteSpace=wrap;html=1;pointerEvents=0;width=320;height=20;" vertex="1" parent="1">
          <mxGeometry x="10" y="540" width="800" height="500" as="geometry" />
        </mxCell>
        <mxCell id="eg1m_n-5e4tIelkp_Vyl-9" value="" style="endArrow=none;dashed=1;html=1;rounded=0;entryX=-0.002;entryY=0.548;entryDx=0;entryDy=0;entryPerimeter=0;strokeWidth=1.5;" edge="1" parent="1">
          <mxGeometry width="50" height="50" relative="1" as="geometry">
            <mxPoint x="720.7" y="870.4" as="sourcePoint" />
            <mxPoint x="19.300000000000136" y="869.9999999999999" as="targetPoint" />
          </mxGeometry>
        </mxCell>
        <mxCell id="eg1m_n-5e4tIelkp_Vyl-10" value="[Données valides]" style="text;html=1;align=center;verticalAlign=middle;whiteSpace=wrap;rounded=0;" vertex="1" parent="1">
          <mxGeometry x="130" y="760" width="110" height="20" as="geometry" />
        </mxCell>
        <mxCell id="eg1m_n-5e4tIelkp_Vyl-11" value="[Données invalides]" style="text;html=1;align=center;verticalAlign=middle;whiteSpace=wrap;rounded=0;" vertex="1" parent="1">
          <mxGeometry x="130" y="880" width="110" height="20" as="geometry" />
        </mxCell>
      </root>
    </mxGraphModel>
  </diagram>
</mxfile>
